<svg data-v-423bf9ae="" xmlns="http://www.w3.org/2000/svg" viewBox="0 0 687 90" class="iconLeft"><!----><!----><!----><g data-v-423bf9ae="" id="7c742086-3b21-4b20-8013-539ed4183a5f" fill="#342103" transform="matrix(5.719733238220215,0,0,5.719733238220215,109.3158187866211,-0.6720679402351379)"><path d="M0.22 3.35L7.69 3.35L7.69 4.52L4.63 4.52L4.63 13.05L3.28 13.05L3.28 4.52L0.22 4.52L0.22 3.35ZM15.46 9.41L15.46 9.41L15.46 9.41Q15.46 10.28 15.20 10.98L15.20 10.98L15.20 10.98Q14.95 11.68 14.50 12.18L14.50 12.18L14.50 12.18Q14.04 12.68 13.41 12.96L13.41 12.96L13.41 12.96Q12.78 13.23 12.04 13.23L12.04 13.23L12.04 13.23Q11.30 13.23 10.67 12.96L10.67 12.96L10.67 12.96Q10.04 12.68 9.58 12.18L9.58 12.18L9.58 12.18Q9.13 11.68 8.88 10.98L8.88 10.98L8.88 10.98Q8.62 10.28 8.62 9.41L8.62 9.41L8.62 9.41Q8.62 8.55 8.88 7.85L8.88 7.85L8.88 7.85Q9.13 7.14 9.58 6.64L9.58 6.64L9.58 6.64Q10.04 6.13 10.67 5.86L10.67 5.86L10.67 5.86Q11.30 5.59 12.04 5.59L12.04 5.59L12.04 5.59Q12.78 5.59 13.41 5.86L13.41 5.86L13.41 5.86Q14.04 6.13 14.50 6.64L14.50 6.64L14.50 6.64Q14.95 7.14 15.20 7.85L15.20 7.85L15.20 7.85Q15.46 8.55 15.46 9.41ZM14.10 9.41L14.10 9.41L14.10 9.41Q14.10 8.18 13.54 7.46L13.54 7.46L13.54 7.46Q12.99 6.73 12.04 6.73L12.04 6.73L12.04 6.73Q11.09 6.73 10.54 7.46L10.54 7.46L10.54 7.46Q9.98 8.18 9.98 9.41L9.98 9.41L9.98 9.41Q9.98 10.64 10.54 11.36L10.54 11.36L10.54 11.36Q11.09 12.08 12.04 12.08L12.04 12.08L12.04 12.08Q12.99 12.08 13.54 11.36L13.54 11.36L13.54 11.36Q14.10 10.64 14.10 9.41ZM17.29 13.05L17.29 5.98L17.29 5.98Q17.74 5.87 18.47 5.74L18.47 5.74L18.47 5.74Q19.21 5.61 20.17 5.61L20.17 5.61L20.17 5.61Q20.87 5.61 21.35 5.80L21.35 5.80L21.35 5.80Q21.83 5.99 22.15 6.36L22.15 6.36L22.15 6.36Q22.25 6.29 22.46 6.16L22.46 6.16L22.46 6.16Q22.67 6.03 22.97 5.92L22.97 5.92L22.97 5.92Q23.28 5.80 23.66 5.71L23.66 5.71L23.66 5.71Q24.04 5.61 24.47 5.61L24.47 5.61L24.47 5.61Q25.31 5.61 25.84 5.86L25.84 5.86L25.84 5.86Q26.38 6.10 26.68 6.55L26.68 6.55L26.68 6.55Q26.98 7 27.08 7.62L27.08 7.62L27.08 7.62Q27.19 8.23 27.19 8.96L27.19 8.96L27.19 13.05L25.89 13.05L25.89 9.24L25.89 9.24Q25.89 8.60 25.82 8.13L25.82 8.13L25.82 8.13Q25.76 7.67 25.59 7.36L25.59 7.36L25.59 7.36Q25.41 7.06 25.11 6.91L25.11 6.91L25.11 6.91Q24.81 6.76 24.33 6.76L24.33 6.76L24.33 6.76Q23.67 6.76 23.25 6.94L23.25 6.94L23.25 6.94Q22.82 7.11 22.67 7.25L22.67 7.25L22.67 7.25Q22.78 7.62 22.83 8.05L22.83 8.05L22.83 8.05Q22.89 8.48 22.89 8.96L22.89 8.96L22.89 13.05L21.59 13.05L21.59 9.24L21.59 9.24Q21.59 8.60 21.52 8.13L21.52 8.13L21.52 8.13Q21.45 7.67 21.27 7.36L21.27 7.36L21.27 7.36Q21.10 7.06 20.80 6.91L20.80 6.91L20.80 6.91Q20.50 6.76 20.03 6.76L20.03 6.76L20.03 6.76Q19.84 6.76 19.61 6.78L19.61 6.78L19.61 6.78Q19.39 6.79 19.19 6.81L19.19 6.81L19.19 6.81Q18.98 6.83 18.82 6.86L18.82 6.86L18.82 6.86Q18.65 6.89 18.59 6.90L18.59 6.90L18.59 13.05L17.29 13.05ZM31.81 12.11L31.81 12.11L31.81 12.11Q32.27 12.11 32.63 12.09L32.63 12.09L32.63 12.09Q32.98 12.07 33.22 12.01L33.22 12.01L33.22 9.84L33.22 9.84Q33.08 9.77 32.77 9.72L32.77 9.72L32.77 9.72Q32.45 9.67 32.00 9.67L32.00 9.67L32.00 9.67Q31.71 9.67 31.38 9.72L31.38 9.72L31.38 9.72Q31.05 9.76 30.78 9.89L30.78 9.89L30.78 9.89Q30.51 10.02 30.32 10.25L30.32 10.25L30.32 10.25Q30.14 10.49 30.14 10.86L30.14 10.86L30.14 10.86Q30.14 11.56 30.59 11.84L30.59 11.84L30.59 11.84Q31.04 12.11 31.81 12.11ZM31.70 5.59L31.70 5.59L31.70 5.59Q32.48 5.59 33.02 5.79L33.02 5.79L33.02 5.79Q33.56 5.99 33.89 6.36L33.89 6.36L33.89 6.36Q34.22 6.73 34.36 7.25L34.36 7.25L34.36 7.25Q34.50 7.76 34.50 8.37L34.50 8.37L34.50 12.92L34.50 12.92Q34.33 12.95 34.03 13.00L34.03 13.00L34.03 13.00Q33.73 13.05 33.35 13.09L33.35 13.09L33.35 13.09Q32.97 13.13 32.53 13.17L32.53 13.17L32.53 13.17Q32.09 13.20 31.65 13.20L31.65 13.20L31.65 13.20Q31.04 13.20 30.52 13.08L30.52 13.08L30.52 13.08Q30.00 12.95 29.62 12.68L29.62 12.68L29.62 12.68Q29.25 12.40 29.04 11.96L29.04 11.96L29.04 11.96Q28.83 11.51 28.83 10.88L28.83 10.88L28.83 10.88Q28.83 10.28 29.07 9.84L29.07 9.84L29.07 9.84Q29.32 9.41 29.74 9.14L29.74 9.14L29.74 9.14Q30.16 8.88 30.72 8.75L30.72 8.75L30.72 8.75Q31.28 8.62 31.89 8.62L31.89 8.62L31.89 8.62Q32.09 8.62 32.30 8.64L32.30 8.64L32.30 8.64Q32.51 8.67 32.70 8.70L32.70 8.70L32.70 8.70Q32.89 8.74 33.03 8.76L33.03 8.76L33.03 8.76Q33.17 8.79 33.22 8.81L33.22 8.81L33.22 8.44L33.22 8.44Q33.22 8.12 33.15 7.80L33.15 7.80L33.15 7.80Q33.08 7.49 32.90 7.25L32.90 7.25L32.90 7.25Q32.72 7 32.40 6.85L32.40 6.85L32.40 6.85Q32.09 6.71 31.58 6.71L31.58 6.71L31.58 6.71Q30.94 6.71 30.46 6.80L30.46 6.80L30.46 6.80Q29.97 6.89 29.74 6.99L29.74 6.99L29.58 5.91L29.58 5.91Q29.83 5.80 30.42 5.69L30.42 5.69L30.42 5.69Q31.01 5.59 31.70 5.59ZM37.87 3.51L37.87 5.77L40.63 5.77L40.63 6.86L37.87 6.86L37.87 10.22L37.87 10.22Q37.87 10.77 37.95 11.12L37.95 11.12L37.95 11.12Q38.04 11.48 38.21 11.68L38.21 11.68L38.21 11.68Q38.37 11.89 38.63 11.97L38.63 11.97L38.63 11.97Q38.88 12.05 39.21 12.05L39.21 12.05L39.21 12.05Q39.80 12.05 40.16 11.92L40.16 11.92L40.16 11.92Q40.52 11.79 40.66 11.73L40.66 11.73L40.91 12.81L40.91 12.81Q40.71 12.91 40.22 13.05L40.22 13.05L40.22 13.05Q39.73 13.20 39.10 13.20L39.10 13.20L39.10 13.20Q38.36 13.20 37.88 13.01L37.88 13.01L37.88 13.01Q37.39 12.82 37.10 12.45L37.10 12.45L37.10 12.45Q36.81 12.07 36.69 11.52L36.69 11.52L36.69 11.52Q36.57 10.96 36.57 10.23L36.57 10.23L36.57 3.74L37.87 3.51ZM48.71 9.41L48.71 9.41L48.71 9.41Q48.71 10.28 48.45 10.98L48.45 10.98L48.45 10.98Q48.20 11.68 47.75 12.18L47.75 12.18L47.75 12.18Q47.29 12.68 46.66 12.96L46.66 12.96L46.66 12.96Q46.03 13.23 45.29 13.23L45.29 13.23L45.29 13.23Q44.55 13.23 43.92 12.96L43.92 12.96L43.92 12.96Q43.29 12.68 42.83 12.18L42.83 12.18L42.83 12.18Q42.38 11.68 42.13 10.98L42.13 10.98L42.13 10.98Q41.87 10.28 41.87 9.41L41.87 9.41L41.87 9.41Q41.87 8.55 42.13 7.85L42.13 7.85L42.13 7.85Q42.38 7.14 42.83 6.64L42.83 6.64L42.83 6.64Q43.29 6.13 43.92 5.86L43.92 5.86L43.92 5.86Q44.55 5.59 45.29 5.59L45.29 5.59L45.29 5.59Q46.03 5.59 46.66 5.86L46.66 5.86L46.66 5.86Q47.29 6.13 47.75 6.64L47.75 6.64L47.75 6.64Q48.20 7.14 48.45 7.85L48.45 7.85L48.45 7.85Q48.71 8.55 48.71 9.41ZM47.35 9.41L47.35 9.41L47.35 9.41Q47.35 8.18 46.80 7.46L46.80 7.46L46.80 7.46Q46.24 6.73 45.29 6.73L45.29 6.73L45.29 6.73Q44.34 6.73 43.79 7.46L43.79 7.46L43.79 7.46Q43.23 8.18 43.23 9.41L43.23 9.41L43.23 9.41Q43.23 10.64 43.79 11.36L43.79 11.36L43.79 11.36Q44.34 12.08 45.29 12.08L45.29 12.08L45.29 12.08Q46.24 12.08 46.80 11.36L46.80 11.36L46.80 11.36Q47.35 10.64 47.35 9.41ZM56.43 3.25L56.43 3.25L56.43 3.25Q58.48 3.25 59.58 4.03L59.58 4.03L59.58 4.03Q60.68 4.80 60.68 6.34L60.68 6.34L60.68 6.34Q60.68 7.18 60.38 7.78L60.38 7.78L60.38 7.78Q60.07 8.37 59.51 8.74L59.51 8.74L59.51 8.74Q58.94 9.11 58.13 9.28L58.13 9.28L58.13 9.28Q57.32 9.45 56.29 9.45L56.29 9.45L55.22 9.45L55.22 13.05L53.86 13.05L53.86 3.49L53.86 3.49Q54.43 3.35 55.14 3.30L55.14 3.30L55.14 3.30Q55.85 3.25 56.43 3.25ZM56.55 4.44L56.55 4.44L56.55 4.44Q55.68 4.44 55.22 4.48L55.22 4.48L55.22 8.29L56.24 8.29L56.24 8.29Q56.94 8.29 57.50 8.20L57.50 8.20L57.50 8.20Q58.06 8.11 58.44 7.89L58.44 7.89L58.44 7.89Q58.83 7.67 59.04 7.29L59.04 7.29L59.04 7.29Q59.25 6.92 59.25 6.33L59.25 6.33L59.25 6.33Q59.25 5.77 59.03 5.40L59.03 5.40L59.03 5.40Q58.81 5.04 58.44 4.82L58.44 4.82L58.44 4.82Q58.07 4.61 57.58 4.52L57.58 4.52L57.58 4.52Q57.09 4.44 56.55 4.44ZM63.59 5.77L63.59 13.05L62.29 13.05L62.29 5.77L63.59 5.77ZM62.93 4.45L62.93 4.45L62.93 4.45Q62.58 4.45 62.34 4.22L62.34 4.22L62.34 4.22Q62.09 3.99 62.09 3.60L62.09 3.60L62.09 3.60Q62.09 3.21 62.34 2.97L62.34 2.97L62.34 2.97Q62.58 2.74 62.93 2.74L62.93 2.74L62.93 2.74Q63.28 2.74 63.53 2.97L63.53 2.97L63.53 2.97Q63.77 3.21 63.77 3.60L63.77 3.60L63.77 3.60Q63.77 3.99 63.53 4.22L63.53 4.22L63.53 4.22Q63.28 4.45 62.93 4.45ZM70.66 5.77L70.66 6.75L70.66 6.75Q70.36 7.07 69.88 7.66L69.88 7.66L69.88 7.66Q69.40 8.25 68.84 8.96L68.84 8.96L68.84 8.96Q68.29 9.67 67.74 10.46L67.74 10.46L67.74 10.46Q67.19 11.24 66.77 11.96L66.77 11.96L70.77 11.96L70.77 13.05L65.21 13.05L65.21 12.18L65.21 12.18Q65.55 11.56 66.04 10.82L66.04 10.82L66.04 10.82Q66.53 10.08 67.07 9.34L67.07 9.34L67.07 9.34Q67.61 8.61 68.12 7.96L68.12 7.96L68.12 7.96Q68.63 7.31 69.01 6.86L69.01 6.86L65.41 6.86L65.41 5.77L70.66 5.77ZM77.25 5.77L77.25 6.75L77.25 6.75Q76.96 7.07 76.47 7.66L76.47 7.66L76.47 7.66Q75.99 8.25 75.44 8.96L75.44 8.96L75.44 8.96Q74.89 9.67 74.33 10.46L74.33 10.46L74.33 10.46Q73.78 11.24 73.36 11.96L73.36 11.96L77.36 11.96L77.36 13.05L71.81 13.05L71.81 12.18L71.81 12.18Q72.14 11.56 72.63 10.82L72.63 10.82L72.63 10.82Q73.12 10.08 73.66 9.34L73.66 9.34L73.66 9.34Q74.20 8.61 74.71 7.96L74.71 7.96L74.71 7.96Q75.22 7.31 75.60 6.86L75.60 6.86L72.00 6.86L72.00 5.77L77.25 5.77ZM78.61 9.42L78.61 9.42L78.61 9.42Q78.61 8.46 78.89 7.74L78.89 7.74L78.89 7.74Q79.17 7.01 79.63 6.54L79.63 6.54L79.63 6.54Q80.09 6.06 80.70 5.82L80.70 5.82L80.70 5.82Q81.30 5.59 81.93 5.59L81.93 5.59L81.93 5.59Q83.40 5.59 84.18 6.50L84.18 6.50L84.18 6.50Q84.97 7.42 84.97 9.30L84.97 9.30L84.97 9.30Q84.97 9.38 84.97 9.51L84.97 9.51L84.97 9.51Q84.97 9.65 84.95 9.76L84.95 9.76L79.97 9.76L79.97 9.76Q80.05 10.89 80.63 11.48L80.63 11.48L80.63 11.48Q81.20 12.07 82.42 12.07L82.42 12.07L82.42 12.07Q83.10 12.07 83.57 11.95L83.57 11.95L83.57 11.95Q84.04 11.83 84.28 11.72L84.28 11.72L84.46 12.81L84.46 12.81Q84.22 12.94 83.63 13.08L83.63 13.08L83.63 13.08Q83.03 13.22 82.28 13.22L82.28 13.22L82.28 13.22Q81.33 13.22 80.63 12.93L80.63 12.93L80.63 12.93Q79.94 12.64 79.49 12.14L79.49 12.14L79.49 12.14Q79.04 11.63 78.83 10.94L78.83 10.94L78.83 10.94Q78.61 10.25 78.61 9.42ZM80.00 8.71L83.61 8.71L83.61 8.71Q83.62 7.83 83.17 7.26L83.17 7.26L83.17 7.26Q82.71 6.69 81.91 6.69L81.91 6.69L81.91 6.69Q81.47 6.69 81.12 6.87L81.12 6.87L81.12 6.87Q80.78 7.04 80.54 7.32L80.54 7.32L80.54 7.32Q80.30 7.60 80.17 7.97L80.17 7.97L80.17 7.97Q80.04 8.33 80.00 8.71L80.00 8.71ZM89.53 5.61L89.53 5.61L89.53 5.61Q89.70 5.61 89.91 5.63L89.91 5.63L89.91 5.63Q90.13 5.66 90.34 5.69L90.34 5.69L90.34 5.69Q90.55 5.73 90.73 5.76L90.73 5.76L90.73 5.76Q90.90 5.80 90.99 5.82L90.99 5.82L90.76 6.96L90.76 6.96Q90.61 6.90 90.25 6.83L90.25 6.83L90.25 6.83Q89.89 6.75 89.33 6.75L89.33 6.75L89.33 6.75Q88.97 6.75 88.61 6.83L88.61 6.83L88.61 6.83Q88.26 6.90 88.14 6.93L88.14 6.93L88.14 13.05L86.84 13.05L86.84 6.08L86.84 6.08Q87.30 5.91 87.99 5.76L87.99 5.76L87.99 5.76Q88.68 5.61 89.53 5.61ZM93.55 5.77L93.55 13.05L92.25 13.05L92.25 5.77L93.55 5.77ZM92.89 4.45L92.89 4.45L92.89 4.45Q92.54 4.45 92.29 4.22L92.29 4.22L92.29 4.22Q92.05 3.99 92.05 3.60L92.05 3.60L92.05 3.60Q92.05 3.21 92.29 2.97L92.29 2.97L92.29 2.97Q92.54 2.74 92.89 2.74L92.89 2.74L92.89 2.74Q93.24 2.74 93.48 2.97L93.48 2.97L93.48 2.97Q93.73 3.21 93.73 3.60L93.73 3.60L93.73 3.60Q93.73 3.99 93.48 4.22L93.48 4.22L93.48 4.22Q93.24 4.45 92.89 4.45ZM98.25 12.11L98.25 12.11L98.25 12.11Q98.71 12.11 99.07 12.09L99.07 12.09L99.07 12.09Q99.43 12.07 99.67 12.01L99.67 12.01L99.67 9.84L99.67 9.84Q99.53 9.77 99.21 9.72L99.21 9.72L99.21 9.72Q98.90 9.67 98.45 9.67L98.45 9.67L98.45 9.67Q98.15 9.67 97.82 9.72L97.82 9.72L97.82 9.72Q97.50 9.76 97.22 9.89L97.22 9.89L97.22 9.89Q96.95 10.02 96.77 10.25L96.77 10.25L96.77 10.25Q96.59 10.49 96.59 10.86L96.59 10.86L96.59 10.86Q96.59 11.56 97.03 11.84L97.03 11.84L97.03 11.84Q97.48 12.11 98.25 12.11ZM98.14 5.59L98.14 5.59L98.14 5.59Q98.92 5.59 99.46 5.79L99.46 5.79L99.46 5.79Q100.00 5.99 100.33 6.36L100.33 6.36L100.33 6.36Q100.66 6.73 100.80 7.25L100.80 7.25L100.80 7.25Q100.94 7.76 100.94 8.37L100.94 8.37L100.94 12.92L100.94 12.92Q100.77 12.95 100.47 13.00L100.47 13.00L100.47 13.00Q100.17 13.05 99.79 13.09L99.79 13.09L99.79 13.09Q99.41 13.13 98.97 13.17L98.97 13.17L98.97 13.17Q98.53 13.20 98.10 13.20L98.10 13.20L98.10 13.20Q97.48 13.20 96.96 13.08L96.96 13.08L96.96 13.08Q96.45 12.95 96.07 12.68L96.07 12.68L96.07 12.68Q95.69 12.40 95.48 11.96L95.48 11.96L95.48 11.96Q95.27 11.51 95.27 10.88L95.27 10.88L95.27 10.88Q95.27 10.28 95.51 9.84L95.51 9.84L95.51 9.84Q95.76 9.41 96.18 9.14L96.18 9.14L96.18 9.14Q96.60 8.88 97.16 8.75L97.16 8.75L97.16 8.75Q97.72 8.62 98.34 8.62L98.34 8.62L98.34 8.62Q98.53 8.62 98.74 8.64L98.74 8.64L98.74 8.64Q98.95 8.67 99.14 8.70L99.14 8.70L99.14 8.70Q99.33 8.74 99.47 8.76L99.47 8.76L99.47 8.76Q99.61 8.79 99.67 8.81L99.67 8.81L99.67 8.44L99.67 8.44Q99.67 8.12 99.60 7.80L99.60 7.80L99.60 7.80Q99.53 7.49 99.34 7.25L99.34 7.25L99.34 7.25Q99.16 7 98.85 6.85L98.85 6.85L98.85 6.85Q98.53 6.71 98.03 6.71L98.03 6.71L98.03 6.71Q97.38 6.71 96.90 6.80L96.90 6.80L96.90 6.80Q96.42 6.89 96.18 6.99L96.18 6.99L96.03 5.91L96.03 5.91Q96.28 5.80 96.87 5.69L96.87 5.69L96.87 5.69Q97.45 5.59 98.14 5.59Z"></path></g><defs data-v-423bf9ae=""><linearGradient data-v-423bf9ae="" gradientTransform="rotate(25)" id="022ef9cf-1a3a-4d9e-90b4-ca9e45909b9c" x1="0%" y1="0%" x2="100%" y2="0%"><stop data-v-423bf9ae="" offset="0%" style="stop-color: rgb(229, 101, 0); stop-opacity: 1;"></stop><stop data-v-423bf9ae="" offset="100%" style="stop-color: rgb(235, 197, 29); stop-opacity: 1;"></stop></linearGradient></defs><g data-v-423bf9ae="" id="21a04215-278f-47dd-a682-5c85637551d4" transform="matrix(1.2113218307495117,0,0,1.2113218307495117,-16.164020538330078,-17.16897964477539)" stroke="none" fill="url(#022ef9cf-1a3a-4d9e-90b4-ca9e45909b9c)"><path d="M51 14.996c-20.648 0-37.386 16.632-37.386 37.149 0 20.519 16.738 37.15 37.386 37.15 20.647 0 37.387-16.632 37.387-37.15 0-20.517-16.74-37.149-37.387-37.149zm.151 71.613c-19.035 0-34.465-15.333-34.465-34.246 0-18.914 15.43-34.246 34.465-34.246 19.033 0 34.463 15.332 34.463 34.246 0 18.913-15.429 34.246-34.463 34.246z"></path><path d="M27.429 36.256s15.666-17.457 38.491-6.267L53.837 40.284l3.579-7.019s-13.874-4.171-24.168 3.886c0 0 11.637 3.58 10.742 7.608-.001.001-15.219-4.475-16.561-8.503zM56.97 47.893l14.769-12.39s6.268 13.733 4.478 24.922l-15.219-4.924h8.504s-.906-10.793-2.747-12.531c-1.844-1.738-3.967 6.266-9.785 4.923zM43.095 52.369s-17.456-5.678-17.456-4.405-4.028 7.537 0 17.832l14.323-5.371s3.396-4.748-9.4 0l-3.132-8.28c-.001 0 15.665 3.805 15.665.224zM43.095 60.425s-7.609 9.847-7.609 11.638 14.769 9.399 15.218 6.714c.447-2.685.895-15.218 0-18.352l-.896-3.133s-3.133 1.79-3.133 13.875l-5.37-2.849s2.237-3.864 1.79-7.893zM59.207 76.985s13.876-7.041 13.876-8.667-9.634-10.608-13.215-8.819c-3.581 1.791 6.052 6.297 6.052 6.297s-5.987 4.217-7.469 2.782c-1.481-1.439 1.481 1.435 1.481 1.435s-1.172-3.769-2.963-9.588c-1.789-5.82-.054 17.753 2.238 16.56z"></path></g><!----></svg>