<svg width="100" height="100" xmlns="http://www.w3.org/2000/svg" class="iconLeft">
 <!---->

 <!---->
 <!---->
 <!---->
 <!---->
 <g>
  <title>Layer 1</title>
  <g transform="matrix(5.71973, 0, 0, 5.71973, 109.316, -0.672068)" fill="white" id="70fd98a6-5e4c-4265-92ba-f5e250287209">
   <path fill="#297c7c" id="svg_1" d="m0.22,3.35l7.47,0l0,1.17l-3.06,0l0,8.53l-1.35,0l0,-8.53l-3.06,0l0,-1.17zm15.24,6.06l0,0l0,0q0,0.87 -0.26,1.57l0,0l0,0q-0.25,0.7 -0.7,1.2l0,0l0,0q-0.46,0.5 -1.09,0.78l0,0l0,0q-0.63,0.27 -1.37,0.27l0,0l0,0q-0.74,0 -1.37,-0.27l0,0l0,0q-0.63,-0.28 -1.09,-0.78l0,0l0,0q-0.45,-0.5 -0.7,-1.2l0,0l0,0q-0.26,-0.7 -0.26,-1.57l0,0l0,0q0,-0.86 0.26,-1.56l0,0l0,0q0.25,-0.71 0.7,-1.21l0,0l0,0q0.46,-0.51 1.09,-0.78l0,0l0,0q0.63,-0.27 1.37,-0.27l0,0l0,0q0.74,0 1.37,0.27l0,0l0,0q0.63,0.27 1.09,0.78l0,0l0,0q0.45,0.5 0.7,1.21l0,0l0,0q0.26,0.7 0.26,1.56zm-1.36,0l0,0l0,0q0,-1.23 -0.56,-1.95l0,0l0,0q-0.55,-0.73 -1.5,-0.73l0,0l0,0q-0.95,0 -1.5,0.73l0,0l0,0q-0.56,0.72 -0.56,1.95l0,0l0,0q0,1.23 0.56,1.95l0,0l0,0q0.55,0.72 1.5,0.72l0,0l0,0q0.95,0 1.5,-0.72l0,0l0,0q0.56,-0.72 0.56,-1.95zm3.19,3.64l0,-7.07l0,0q0.45,-0.11 1.18,-0.24l0,0l0,0q0.74,-0.13 1.7,-0.13l0,0l0,0q0.7,0 1.18,0.19l0,0l0,0q0.48,0.19 0.8,0.56l0,0l0,0q0.1,-0.07 0.31,-0.2l0,0l0,0q0.21,-0.13 0.51,-0.24l0,0l0,0q0.31,-0.12 0.69,-0.21l0,0l0,0q0.38,-0.1 0.81,-0.1l0,0l0,0q0.84,0 1.37,0.25l0,0l0,0q0.54,0.24 0.84,0.69l0,0l0,0q0.3,0.45 0.4,1.07l0,0l0,0q0.11,0.61 0.11,1.34l0,0l0,4.09l-1.3,0l0,-3.81l0,0q0,-0.64 -0.07,-1.11l0,0l0,0q-0.06,-0.46 -0.23,-0.77l0,0l0,0q-0.18,-0.3 -0.48,-0.45l0,0l0,0q-0.3,-0.15 -0.78,-0.15l0,0l0,0q-0.66,0 -1.08,0.18l0,0l0,0q-0.43,0.17 -0.58,0.31l0,0l0,0q0.11,0.37 0.16,0.8l0,0l0,0q0.06,0.43 0.06,0.91l0,0l0,4.09l-1.3,0l0,-3.81l0,0q0,-0.64 -0.07,-1.11l0,0l0,0q-0.07,-0.46 -0.25,-0.77l0,0l0,0q-0.17,-0.3 -0.47,-0.45l0,0l0,0q-0.3,-0.15 -0.77,-0.15l0,0l0,0q-0.19,0 -0.42,0.02l0,0l0,0q-0.22,0.01 -0.42,0.03l0,0l0,0q-0.21,0.02 -0.37,0.05l0,0l0,0q-0.17,0.03 -0.23,0.04l0,0l0,6.15l-1.3,0zm14.52,-0.94l0,0l0,0q0.46,0 0.82,-0.02l0,0l0,0q0.35,-0.02 0.59,-0.08l0,0l0,-2.17l0,0q-0.14,-0.07 -0.45,-0.12l0,0l0,0q-0.32,-0.05 -0.77,-0.05l0,0l0,0q-0.29,0 -0.62,0.05l0,0l0,0q-0.33,0.04 -0.6,0.17l0,0l0,0q-0.27,0.13 -0.46,0.36l0,0l0,0q-0.18,0.24 -0.18,0.61l0,0l0,0q0,0.7 0.45,0.98l0,0l0,0q0.45,0.27 1.22,0.27zm-0.11,-6.52l0,0l0,0q0.78,0 1.32,0.2l0,0l0,0q0.54,0.2 0.87,0.57l0,0l0,0q0.33,0.37 0.47,0.89l0,0l0,0q0.14,0.51 0.14,1.12l0,0l0,4.55l0,0q-0.17,0.03 -0.47,0.08l0,0l0,0q-0.3,0.05 -0.68,0.09l0,0l0,0q-0.38,0.04 -0.82,0.08l0,0l0,0q-0.44,0.03 -0.88,0.03l0,0l0,0q-0.61,0 -1.13,-0.12l0,0l0,0q-0.52,-0.13 -0.9,-0.4l0,0l0,0q-0.37,-0.28 -0.58,-0.72l0,0l0,0q-0.21,-0.45 -0.21,-1.08l0,0l0,0q0,-0.6 0.24,-1.04l0,0l0,0q0.25,-0.43 0.67,-0.7l0,0l0,0q0.42,-0.26 0.98,-0.39l0,0l0,0q0.56,-0.13 1.17,-0.13l0,0l0,0q0.2,0 0.41,0.02l0,0l0,0q0.21,0.03 0.4,0.06l0,0l0,0q0.19,0.04 0.33,0.06l0,0l0,0q0.14,0.03 0.19,0.05l0,0l0,-0.37l0,0q0,-0.32 -0.07,-0.64l0,0l0,0q-0.07,-0.31 -0.25,-0.55l0,0l0,0q-0.18,-0.25 -0.5,-0.4l0,0l0,0q-0.31,-0.14 -0.82,-0.14l0,0l0,0q-0.64,0 -1.12,0.09l0,0l0,0q-0.49,0.09 -0.72,0.19l0,0l-0.16,-1.08l0,0q0.25,-0.11 0.84,-0.22l0,0l0,0q0.59,-0.1 1.28,-0.1zm6.17,-2.08l0,2.26l2.76,0l0,1.09l-2.76,0l0,3.36l0,0q0,0.55 0.08,0.9l0,0l0,0q0.09,0.36 0.26,0.56l0,0l0,0q0.16,0.21 0.42,0.29l0,0l0,0q0.25,0.08 0.58,0.08l0,0l0,0q0.59,0 0.95,-0.13l0,0l0,0q0.36,-0.13 0.5,-0.19l0,0l0.25,1.08l0,0q-0.2,0.1 -0.69,0.24l0,0l0,0q-0.49,0.15 -1.12,0.15l0,0l0,0q-0.74,0 -1.22,-0.19l0,0l0,0q-0.49,-0.19 -0.78,-0.56l0,0l0,0q-0.29,-0.38 -0.41,-0.93l0,0l0,0q-0.12,-0.56 -0.12,-1.29l0,0l0,-6.49l1.3,-0.23zm10.84,5.9l0,0l0,0q0,0.87 -0.26,1.57l0,0l0,0q-0.25,0.7 -0.7,1.2l0,0l0,0q-0.46,0.5 -1.09,0.78l0,0l0,0q-0.63,0.27 -1.37,0.27l0,0l0,0q-0.74,0 -1.37,-0.27l0,0l0,0q-0.63,-0.28 -1.09,-0.78l0,0l0,0q-0.45,-0.5 -0.7,-1.2l0,0l0,0q-0.26,-0.7 -0.26,-1.57l0,0l0,0q0,-0.86 0.26,-1.56l0,0l0,0q0.25,-0.71 0.7,-1.21l0,0l0,0q0.46,-0.51 1.09,-0.78l0,0l0,0q0.63,-0.27 1.37,-0.27l0,0l0,0q0.74,0 1.37,0.27l0,0l0,0q0.63,0.27 1.09,0.78l0,0l0,0q0.45,0.5 0.7,1.21l0,0l0,0q0.26,0.7 0.26,1.56zm-1.36,0l0,0l0,0q0,-1.23 -0.55,-1.95l0,0l0,0q-0.56,-0.73 -1.51,-0.73l0,0l0,0q-0.95,0 -1.5,0.73l0,0l0,0q-0.56,0.72 -0.56,1.95l0,0l0,0q0,1.23 0.56,1.95l0,0l0,0q0.55,0.72 1.5,0.72l0,0l0,0q0.95,0 1.51,-0.72l0,0l0,0q0.55,-0.72 0.55,-1.95zm9.08,-6.16l0,0l0,0q2.05,0 3.15,0.78l0,0l0,0q1.1,0.77 1.1,2.31l0,0l0,0q0,0.84 -0.3,1.44l0,0l0,0q-0.31,0.59 -0.87,0.96l0,0l0,0q-0.57,0.37 -1.38,0.54l0,0l0,0q-0.81,0.17 -1.84,0.17l0,0l-1.07,0l0,3.6l-1.36,0l0,-9.56l0,0q0.57,-0.14 1.28,-0.19l0,0l0,0q0.71,-0.05 1.29,-0.05zm0.12,1.19l0,0l0,0q-0.87,0 -1.33,0.04l0,0l0,3.81l1.02,0l0,0q0.7,0 1.26,-0.09l0,0l0,0q0.56,-0.09 0.94,-0.31l0,0l0,0q0.39,-0.22 0.6,-0.6l0,0l0,0q0.21,-0.37 0.21,-0.96l0,0l0,0q0,-0.56 -0.22,-0.93l0,0l0,0q-0.22,-0.36 -0.59,-0.58l0,0l0,0q-0.37,-0.21 -0.86,-0.3l0,0l0,0q-0.49,-0.08 -1.03,-0.08zm7.04,1.33l0,7.28l-1.3,0l0,-7.28l1.3,0zm-0.66,-1.32l0,0l0,0q-0.35,0 -0.59,-0.23l0,0l0,0q-0.25,-0.23 -0.25,-0.62l0,0l0,0q0,-0.39 0.25,-0.63l0,0l0,0q0.24,-0.23 0.59,-0.23l0,0l0,0q0.35,0 0.6,0.23l0,0l0,0q0.24,0.24 0.24,0.63l0,0l0,0q0,0.39 -0.24,0.62l0,0l0,0q-0.25,0.23 -0.6,0.23zm7.73,1.32l0,0.98l0,0q-0.3,0.32 -0.78,0.91l0,0l0,0q-0.48,0.59 -1.04,1.3l0,0l0,0q-0.55,0.71 -1.1,1.5l0,0l0,0q-0.55,0.78 -0.97,1.5l0,0l4,0l0,1.09l-5.56,0l0,-0.87l0,0q0.34,-0.62 0.83,-1.36l0,0l0,0q0.49,-0.74 1.03,-1.48l0,0l0,0q0.54,-0.73 1.05,-1.38l0,0l0,0q0.51,-0.65 0.89,-1.1l0,0l-3.6,0l0,-1.09l5.25,0zm6.59,0l0,0.98l0,0q-0.29,0.32 -0.78,0.91l0,0l0,0q-0.48,0.59 -1.03,1.3l0,0l0,0q-0.55,0.71 -1.11,1.5l0,0l0,0q-0.55,0.78 -0.97,1.5l0,0l4,0l0,1.09l-5.55,0l0,-0.87l0,0q0.33,-0.62 0.82,-1.36l0,0l0,0q0.49,-0.74 1.03,-1.48l0,0l0,0q0.54,-0.73 1.05,-1.38l0,0l0,0q0.51,-0.65 0.89,-1.1l0,0l-3.6,0l0,-1.09l5.25,0zm1.36,3.65l0,0l0,0q0,-0.96 0.28,-1.68l0,0l0,0q0.28,-0.73 0.74,-1.2l0,0l0,0q0.46,-0.48 1.07,-0.72l0,0l0,0q0.6,-0.23 1.23,-0.23l0,0l0,0q1.47,0 2.25,0.91l0,0l0,0q0.79,0.92 0.79,2.8l0,0l0,0q0,0.08 0,0.21l0,0l0,0q0,0.14 -0.02,0.25l0,0l-4.98,0l0,0q0.08,1.13 0.66,1.72l0,0l0,0q0.57,0.59 1.79,0.59l0,0l0,0q0.68,0 1.15,-0.12l0,0l0,0q0.47,-0.12 0.71,-0.23l0,0l0.18,1.09l0,0q-0.24,0.13 -0.83,0.27l0,0l0,0q-0.6,0.14 -1.35,0.14l0,0l0,0q-0.95,0 -1.65,-0.29l0,0l0,0q-0.69,-0.29 -1.14,-0.79l0,0l0,0q-0.45,-0.51 -0.66,-1.2l0,0l0,0q-0.22,-0.69 -0.22,-1.52zm1.39,-0.71l3.61,0l0,0q0.01,-0.88 -0.44,-1.45l0,0l0,0q-0.46,-0.57 -1.26,-0.57l0,0l0,0q-0.44,0 -0.79,0.18l0,0l0,0q-0.34,0.17 -0.58,0.45l0,0l0,0q-0.24,0.28 -0.37,0.65l0,0l0,0q-0.13,0.36 -0.17,0.74l0,0zm9.53,-3.1l0,0l0,0q0.17,0 0.38,0.02l0,0l0,0q0.22,0.03 0.43,0.06l0,0l0,0q0.21,0.04 0.39,0.07l0,0l0,0q0.17,0.04 0.26,0.06l0,0l-0.23,1.14l0,0q-0.15,-0.06 -0.51,-0.13l0,0l0,0q-0.36,-0.08 -0.92,-0.08l0,0l0,0q-0.36,0 -0.72,0.08l0,0l0,0q-0.35,0.07 -0.47,0.1l0,0l0,6.12l-1.3,0l0,-6.97l0,0q0.46,-0.17 1.15,-0.32l0,0l0,0q0.69,-0.15 1.54,-0.15zm4.02,0.16l0,7.28l-1.3,0l0,-7.28l1.3,0zm-0.66,-1.32l0,0l0,0q-0.35,0 -0.6,-0.23l0,0l0,0q-0.24,-0.23 -0.24,-0.62l0,0l0,0q0,-0.39 0.24,-0.63l0,0l0,0q0.25,-0.23 0.6,-0.23l0,0l0,0q0.35,0 0.59,0.23l0,0l0,0q0.25,0.24 0.25,0.63l0,0l0,0q0,0.39 -0.25,0.62l0,0l0,0q-0.24,0.23 -0.59,0.23zm5.36,7.66l0,0l0,0q0.46,0 0.82,-0.02l0,0l0,0q0.36,-0.02 0.6,-0.08l0,0l0,-2.17l0,0q-0.14,-0.07 -0.46,-0.12l0,0l0,0q-0.31,-0.05 -0.76,-0.05l0,0l0,0q-0.3,0 -0.63,0.05l0,0l0,0q-0.32,0.04 -0.6,0.17l0,0l0,0q-0.27,0.13 -0.45,0.36l0,0l0,0q-0.18,0.24 -0.18,0.61l0,0l0,0q0,0.7 0.44,0.98l0,0l0,0q0.45,0.27 1.22,0.27zm-0.11,-6.52l0,0l0,0q0.78,0 1.32,0.2l0,0l0,0q0.54,0.2 0.87,0.57l0,0l0,0q0.33,0.37 0.47,0.89l0,0l0,0q0.14,0.51 0.14,1.12l0,0l0,4.55l0,0q-0.17,0.03 -0.47,0.08l0,0l0,0q-0.3,0.05 -0.68,0.09l0,0l0,0q-0.38,0.04 -0.82,0.08l0,0l0,0q-0.44,0.03 -0.87,0.03l0,0l0,0q-0.62,0 -1.14,-0.12l0,0l0,0q-0.51,-0.13 -0.89,-0.4l0,0l0,0q-0.38,-0.28 -0.59,-0.72l0,0l0,0q-0.21,-0.45 -0.21,-1.08l0,0l0,0q0,-0.6 0.24,-1.04l0,0l0,0q0.25,-0.43 0.67,-0.7l0,0l0,0q0.42,-0.26 0.98,-0.39l0,0l0,0q0.56,-0.13 1.18,-0.13l0,0l0,0q0.19,0 0.4,0.02l0,0l0,0q0.21,0.03 0.4,0.06l0,0l0,0q0.19,0.04 0.33,0.06l0,0l0,0q0.14,0.03 0.2,0.05l0,0l0,-0.37l0,0q0,-0.32 -0.07,-0.64l0,0l0,0q-0.07,-0.31 -0.26,-0.55l0,0l0,0q-0.18,-0.25 -0.49,-0.4l0,0l0,0q-0.32,-0.14 -0.82,-0.14l0,0l0,0q-0.65,0 -1.13,0.09l0,0l0,0q-0.48,0.09 -0.72,0.19l0,0l-0.15,-1.08l0,0q0.25,-0.11 0.84,-0.22l0,0l0,0q0.58,-0.1 1.27,-0.1z"/>
  </g>
  <g transform="matrix(1.21132, 0, 0, 1.21132, -16.164, -17.169)" fill="white" id="706d04b0-2f41-457c-8deb-8d1556cb3fd7">
   <path fill="#000000" id="svg_2" d="m55.12772,17.47263c-20.648,0 -37.386,16.632 -37.386,37.149c0,20.519 16.738,37.15 37.386,37.15c20.647,0 37.387,-16.632 37.387,-37.15c0,-20.517 -16.74,-37.149 -37.387,-37.149zm0.151,71.613c-19.035,0 -34.465,-15.333 -34.465,-34.246c0,-18.914 15.43,-34.246 34.465,-34.246c19.033,0 34.463,15.332 34.463,34.246c0,18.913 -15.429,34.246 -34.463,34.246z"/>
   <path fill="#000000" id="svg_3" d="m31.55672,38.73263s15.666,-17.457 38.491,-6.267l-12.083,10.295l3.579,-7.019s-13.874,-4.171 -24.168,3.886c0,0 11.637,3.58 10.742,7.608c-0.001,0.001 -15.219,-4.475 -16.561,-8.503zm29.541,11.637l14.769,-12.39s6.268,13.733 4.478,24.922l-15.219,-4.924l8.504,0s-0.906,-10.793 -2.747,-12.531c-1.844,-1.738 -3.967,6.266 -9.785,4.923zm-13.875,4.476s-17.456,-5.678 -17.456,-4.405s-4.028,7.537 0,17.832l14.323,-5.371s3.396,-4.748 -9.4,0l-3.132,-8.28c-0.001,0 15.665,3.805 15.665,0.224zm0,8.056s-7.609,9.847 -7.609,11.638s14.769,9.399 15.218,6.714c0.447,-2.685 0.895,-15.218 0,-18.352l-0.896,-3.133s-3.133,1.79 -3.133,13.875l-5.37,-2.849s2.237,-3.864 1.79,-7.893zm16.112,16.56s13.876,-7.041 13.876,-8.667s-9.634,-10.608 -13.215,-8.819c-3.581,1.791 6.052,6.297 6.052,6.297s-5.987,4.217 -7.469,2.782c-1.481,-1.439 1.481,1.435 1.481,1.435s-1.172,-3.769 -2.963,-9.588c-1.789,-5.82 -0.054,17.753 2.238,16.56z"/>
  </g>
 </g>
</svg>